<?xml version="1.0" encoding="UTF-8" standalone="no"?>
<!-- Created with Inkscape (http://www.inkscape.org/) -->

<svg
   xmlns:dc="http://purl.org/dc/elements/1.1/"
   xmlns:cc="http://creativecommons.org/ns#"
   xmlns:rdf="http://www.w3.org/1999/02/22-rdf-syntax-ns#"
   xmlns:svg="http://www.w3.org/2000/svg"
   xmlns="http://www.w3.org/2000/svg"
   xmlns:sodipodi="http://sodipodi.sourceforge.net/DTD/sodipodi-0.dtd"
   xmlns:inkscape="http://www.inkscape.org/namespaces/inkscape"
   width="512"
   height="512"
   id="svg2"
   version="1.1"
   inkscape:version="0.48.4 r9939"
   sodipodi:docname="tiles.svg"
   inkscape:export-filename="/home/jpab/projects/2048/tiles.png"
   inkscape:export-xdpi="90"
   inkscape:export-ydpi="90">
  <defs
     id="defs4" />
  <sodipodi:namedview
     id="base"
     pagecolor="#ffffff"
     bordercolor="#666666"
     borderopacity="1.0"
     inkscape:pageopacity="0.0"
     inkscape:pageshadow="2"
     inkscape:zoom="1.4742647"
     inkscape:cx="256"
     inkscape:cy="256"
     inkscape:document-units="px"
     inkscape:current-layer="layer3"
     showgrid="true"
     inkscape:showpageshadow="false"
     inkscape:snap-nodes="false"
     inkscape:snap-bbox="true"
     inkscape:snap-global="false"
     inkscape:window-width="1551"
     inkscape:window-height="1001"
     inkscape:window-x="129"
     inkscape:window-y="27"
     inkscape:window-maximized="1">
    <inkscape:grid
       type="xygrid"
       id="grid2985"
       empspacing="5"
       visible="true"
       enabled="true"
       snapvisiblegridlinesonly="true"
       spacingx="128px"
       spacingy="128px" />
  </sodipodi:namedview>
  <metadata
     id="metadata7">
    <rdf:RDF>
      <cc:Work
         rdf:about="">
        <dc:format>image/svg+xml</dc:format>
        <dc:type
           rdf:resource="http://purl.org/dc/dcmitype/StillImage" />
        <dc:title />
      </cc:Work>
    </rdf:RDF>
  </metadata>
  <g
     inkscape:groupmode="layer"
     id="layer2"
     inkscape:label="bg"
     style="display:none"
     sodipodi:insensitive="true">
    <rect
       transform="translate(0,-540.3622)"
       style="fill:#bbada0;fill-opacity:1;stroke:none"
       id="rect3883"
       width="512"
       height="512"
       x="0"
       y="540.36218" />
  </g>
  <g
     inkscape:label="tiles"
     inkscape:groupmode="layer"
     id="layer1"
     transform="translate(0,-540.3622)"
     style="display:inline"
     sodipodi:insensitive="true">
    <rect
       style="fill:#eee4da;fill-opacity:1;stroke:none"
       id="rect2990"
       width="116"
       height="116"
       x="134"
       y="546.36218"
       rx="4"
       ry="4"
       inkscape:tile-cx="64"
       inkscape:tile-cy="63.999983"
       inkscape:tile-w="116"
       inkscape:tile-h="116"
       inkscape:tile-x0="6"
       inkscape:tile-y0="5.9999826" />
    <rect
       inkscape:tile-y0="5.9999826"
       inkscape:tile-x0="6"
       inkscape:tile-h="116"
       inkscape:tile-w="116"
       inkscape:tile-cy="63.999983"
       inkscape:tile-cx="64"
       ry="4"
       rx="4"
       y="546.36218"
       x="262"
       height="116"
       width="116"
       id="rect3789"
       style="fill:#ede0c8;fill-opacity:1;stroke:none" />
    <rect
       style="fill:#f2b179;fill-opacity:1;stroke:none"
       id="rect3791"
       width="116"
       height="116"
       x="390"
       y="546.36218"
       rx="4"
       ry="4"
       inkscape:tile-cx="64"
       inkscape:tile-cy="63.999983"
       inkscape:tile-w="116"
       inkscape:tile-h="116"
       inkscape:tile-x0="6"
       inkscape:tile-y0="5.9999826" />
    <rect
       inkscape:tile-y0="5.9999826"
       inkscape:tile-x0="6"
       inkscape:tile-h="116"
       inkscape:tile-w="116"
       inkscape:tile-cy="63.999983"
       inkscape:tile-cx="64"
       ry="4"
       rx="4"
       y="674.36218"
       x="6"
       height="116"
       width="116"
       id="rect3793"
       style="fill:#f59563;fill-opacity:1;stroke:none" />
    <rect
       inkscape:tile-y0="5.9999826"
       inkscape:tile-x0="6"
       inkscape:tile-h="116"
       inkscape:tile-w="116"
       inkscape:tile-cy="63.999983"
       inkscape:tile-cx="64"
       ry="4"
       rx="4"
       y="802.36218"
       x="6"
       height="116"
       width="116"
       id="rect3801"
       style="fill:#edcc61;fill-opacity:1;stroke:none" />
    <rect
       style="fill:#edcf72;fill-opacity:1;stroke:none"
       id="rect3799"
       width="116"
       height="116"
       x="390"
       y="674.36218"
       rx="4"
       ry="4"
       inkscape:tile-cx="64"
       inkscape:tile-cy="63.999983"
       inkscape:tile-w="116"
       inkscape:tile-h="116"
       inkscape:tile-x0="6"
       inkscape:tile-y0="5.9999826" />
    <rect
       inkscape:tile-y0="5.9999826"
       inkscape:tile-x0="6"
       inkscape:tile-h="116"
       inkscape:tile-w="116"
       inkscape:tile-cy="63.999983"
       inkscape:tile-cx="64"
       ry="4"
       rx="4"
       y="674.36218"
       x="262"
       height="116"
       width="116"
       id="rect3797"
       style="fill:#f65e3b;fill-opacity:1;stroke:none" />
    <rect
       style="fill:#f67c5f;fill-opacity:1;stroke:none"
       id="rect3795"
       width="116"
       height="116"
       x="134"
       y="674.36218"
       rx="4"
       ry="4"
       inkscape:tile-cx="64"
       inkscape:tile-cy="63.999983"
       inkscape:tile-w="116"
       inkscape:tile-h="116"
       inkscape:tile-x0="6"
       inkscape:tile-y0="5.9999826" />
    <rect
       style="fill:#edc850;fill-opacity:1;stroke:none"
       id="rect3803"
       width="116"
       height="116"
       x="134"
       y="802.36218"
       rx="4"
       ry="4"
       inkscape:tile-cx="64"
       inkscape:tile-cy="63.999983"
       inkscape:tile-w="116"
       inkscape:tile-h="116"
       inkscape:tile-x0="6"
       inkscape:tile-y0="5.9999826" />
    <rect
       inkscape:tile-y0="5.9999826"
       inkscape:tile-x0="6"
       inkscape:tile-h="116"
       inkscape:tile-w="116"
       inkscape:tile-cy="63.999983"
       inkscape:tile-cx="64"
       ry="4"
       rx="4"
       y="802.36218"
       x="262"
       height="116"
       width="116"
       id="rect3805"
       style="fill:#edc53f;fill-opacity:1;stroke:none" />
    <rect
       style="fill:#edc22e;fill-opacity:1;stroke:none"
       id="rect3807"
       width="116"
       height="116"
       x="390"
       y="802.36218"
       rx="4"
       ry="4"
       inkscape:tile-cx="64"
       inkscape:tile-cy="63.999983"
       inkscape:tile-w="116"
       inkscape:tile-h="116"
       inkscape:tile-x0="6"
       inkscape:tile-y0="5.9999826" />
    <rect
       inkscape:tile-y0="5.9999826"
       inkscape:tile-x0="6"
       inkscape:tile-h="116"
       inkscape:tile-w="116"
       inkscape:tile-cy="63.999983"
       inkscape:tile-cx="64"
       ry="4"
       rx="4"
       y="930.36218"
       x="6"
       height="116"
       width="116"
       id="rect3809"
       style="fill:#ceea31;fill-opacity:1;stroke:none" />
    <rect
       style="fill:#bcea31;fill-opacity:1;stroke:none"
       id="rect3859"
       width="116"
       height="116"
       x="134"
       y="930.36218"
       rx="4"
       ry="4"
       inkscape:tile-cx="64"
       inkscape:tile-cy="63.999983"
       inkscape:tile-w="116"
       inkscape:tile-h="116"
       inkscape:tile-x0="6"
       inkscape:tile-y0="5.9999826" />
    <rect
       inkscape:tile-y0="5.9999826"
       inkscape:tile-x0="6"
       inkscape:tile-h="116"
       inkscape:tile-w="116"
       inkscape:tile-cy="63.999983"
       inkscape:tile-cx="64"
       ry="4"
       rx="4"
       y="930.36218"
       x="262"
       height="116"
       width="116"
       id="rect3865"
       style="fill:#abea31;fill-opacity:1;stroke:none" />
    <rect
       style="fill:#99ea31;fill-opacity:1;stroke:none"
       id="rect3871"
       width="116"
       height="116"
       x="390"
       y="930.36218"
       rx="4"
       ry="4"
       inkscape:tile-cx="64"
       inkscape:tile-cy="63.999983"
       inkscape:tile-w="116"
       inkscape:tile-h="116"
       inkscape:tile-x0="6"
       inkscape:tile-y0="5.9999826" />
    <rect
       inkscape:tile-y0="5.9999826"
       inkscape:tile-x0="6"
       inkscape:tile-h="116"
       inkscape:tile-w="116"
       inkscape:tile-cy="63.999983"
       inkscape:tile-cx="64"
       ry="4"
       rx="4"
       y="546.36218"
       x="6"
       height="116"
       width="116"
       id="rect3885"
       style="fill:#d3c7bb;fill-opacity:1;stroke:none" />
  </g>
  <g
     inkscape:groupmode="layer"
     id="layer4"
     inkscape:label="labels"
     sodipodi:insensitive="true"
     style="display:inline">
    <text
       transform="translate(0,-540.3622)"
       xml:space="preserve"
       style="font-size:18px;font-style:normal;font-variant:normal;font-weight:normal;font-stretch:normal;text-align:center;line-height:125%;letter-spacing:0px;word-spacing:0px;text-anchor:middle;fill:#776e65;fill-opacity:1;stroke:none;display:inline;font-family:Clear Sans;-inkscape-font-specification:Clear Sans"
       x="192.01953"
       y="618.16101"
       id="text3811"
       sodipodi:linespacing="125%"><tspan
         sodipodi:role="line"
         id="tspan3813"
         x="192.01953"
         y="618.16101"
         style="font-size:40px;font-weight:bold;fill:#776e65;fill-opacity:1;-inkscape-font-specification:Clear Sans Bold">2</tspan></text>
    <text
       transform="translate(0,-540.3622)"
       sodipodi:linespacing="125%"
       id="text3815"
       y="618.16101"
       x="320.18555"
       style="font-size:18px;font-style:normal;font-variant:normal;font-weight:normal;font-stretch:normal;text-align:center;line-height:125%;letter-spacing:0px;word-spacing:0px;text-anchor:middle;fill:#776e65;fill-opacity:1;stroke:none;display:inline;font-family:Clear Sans;-inkscape-font-specification:Clear Sans"
       xml:space="preserve"><tspan
         style="font-size:40px;font-weight:bold;fill:#776e65;fill-opacity:1;-inkscape-font-specification:Clear Sans Bold"
         y="618.16101"
         x="320.18555"
         id="tspan3817"
         sodipodi:role="line">4</tspan></text>
    <text
       transform="translate(0,-540.3622)"
       xml:space="preserve"
       style="font-size:18px;font-style:normal;font-variant:normal;font-weight:normal;font-stretch:normal;text-align:center;line-height:125%;letter-spacing:0px;word-spacing:0px;text-anchor:middle;fill:#f9f6f2;fill-opacity:1;stroke:none;display:inline;font-family:Clear Sans;-inkscape-font-specification:Clear Sans"
       x="448.01953"
       y="618.16101"
       id="text3819"
       sodipodi:linespacing="125%"><tspan
         sodipodi:role="line"
         id="tspan3821"
         x="448.01953"
         y="618.16101"
         style="font-size:40px;font-weight:bold;fill:#f9f6f2;fill-opacity:1;-inkscape-font-specification:Clear Sans Bold">8</tspan></text>
    <text
       transform="translate(0,-540.3622)"
       sodipodi:linespacing="125%"
       id="text3823"
       y="746.16101"
       x="62.398438"
       style="font-size:18px;font-style:normal;font-variant:normal;font-weight:bold;font-stretch:normal;text-align:center;line-height:125%;letter-spacing:0px;word-spacing:0px;text-anchor:middle;fill:#f9f6f2;fill-opacity:1;stroke:none;display:inline;font-family:Clear Sans;-inkscape-font-specification:Clear Sans Bold"
       xml:space="preserve"><tspan
         style="font-size:40px;font-weight:bold;fill:#f9f6f2;fill-opacity:1;-inkscape-font-specification:Clear Sans Bold"
         y="746.16101"
         x="62.398438"
         id="tspan3825"
         sodipodi:role="line">16</tspan></text>
    <text
       transform="translate(0,-540.3622)"
       xml:space="preserve"
       style="font-size:18px;font-style:normal;font-variant:normal;font-weight:bold;font-stretch:normal;text-align:center;line-height:125%;letter-spacing:0px;word-spacing:0px;text-anchor:middle;fill:#f9f6f2;fill-opacity:1;stroke:none;display:inline;font-family:Clear Sans;-inkscape-font-specification:Clear Sans Bold"
       x="63.824219"
       y="873.87781"
       id="text3827"
       sodipodi:linespacing="125%"><tspan
         sodipodi:role="line"
         id="tspan3829"
         x="63.824219"
         y="873.87781"
         style="font-size:40px;font-weight:bold;fill:#f9f6f2;fill-opacity:1;-inkscape-font-specification:Clear Sans Bold">256</tspan></text>
    <text
       transform="translate(0,-540.3622)"
       sodipodi:linespacing="125%"
       id="text3831"
       y="745.87781"
       x="446.41797"
       style="font-size:18px;font-style:normal;font-variant:normal;font-weight:bold;font-stretch:normal;text-align:center;line-height:125%;letter-spacing:0px;word-spacing:0px;text-anchor:middle;fill:#f9f6f2;fill-opacity:1;stroke:none;display:inline;font-family:Clear Sans;-inkscape-font-specification:Clear Sans Bold"
       xml:space="preserve"><tspan
         style="font-size:40px;font-weight:bold;fill:#f9f6f2;fill-opacity:1;-inkscape-font-specification:Clear Sans Bold"
         y="745.87781"
         x="446.41797"
         id="tspan3833"
         sodipodi:role="line">128</tspan></text>
    <text
       transform="translate(0,-540.3622)"
       xml:space="preserve"
       style="font-size:18px;font-style:normal;font-variant:normal;font-weight:bold;font-stretch:normal;text-align:center;line-height:125%;letter-spacing:0px;word-spacing:0px;text-anchor:middle;fill:#f9f6f2;fill-opacity:1;stroke:none;display:inline;font-family:Clear Sans;-inkscape-font-specification:Clear Sans Bold"
       x="319.82422"
       y="745.87781"
       id="text3835"
       sodipodi:linespacing="125%"><tspan
         sodipodi:role="line"
         id="tspan3837"
         x="319.82422"
         y="745.87781"
         style="font-size:40px;font-weight:bold;fill:#f9f6f2;fill-opacity:1;-inkscape-font-specification:Clear Sans Bold">64</tspan></text>
    <text
       transform="translate(0,-540.3622)"
       sodipodi:linespacing="125%"
       id="text3839"
       y="745.87781"
       x="192.37109"
       style="font-size:18px;font-style:normal;font-variant:normal;font-weight:bold;font-stretch:normal;text-align:center;line-height:125%;letter-spacing:0px;word-spacing:0px;text-anchor:middle;fill:#f9f6f2;fill-opacity:1;stroke:none;display:inline;font-family:Clear Sans;-inkscape-font-specification:Clear Sans Bold"
       xml:space="preserve"><tspan
         style="font-size:40px;font-weight:bold;fill:#f9f6f2;fill-opacity:1;-inkscape-font-specification:Clear Sans Bold"
         y="745.87781"
         x="192.37109"
         id="tspan3841"
         sodipodi:role="line">32</tspan></text>
    <text
       transform="translate(0,-540.3622)"
       xml:space="preserve"
       style="font-size:18px;font-style:normal;font-variant:normal;font-weight:bold;font-stretch:normal;text-align:center;line-height:125%;letter-spacing:0px;word-spacing:0px;text-anchor:middle;fill:#f9f6f2;fill-opacity:1;stroke:none;display:inline;font-family:Clear Sans;-inkscape-font-specification:Clear Sans Bold"
       x="192.53711"
       y="873.87781"
       id="text3843"
       sodipodi:linespacing="125%"><tspan
         sodipodi:role="line"
         id="tspan3845"
         x="192.53711"
         y="873.87781"
         style="font-size:40px;font-weight:bold;fill:#f9f6f2;fill-opacity:1;-inkscape-font-specification:Clear Sans Bold">512</tspan></text>
    <text
       transform="translate(0,-540.3622)"
       sodipodi:linespacing="125%"
       id="text3847"
       y="873.87781"
       x="318.37891"
       style="font-size:18px;font-style:normal;font-variant:normal;font-weight:bold;font-stretch:normal;text-align:center;line-height:125%;letter-spacing:0px;word-spacing:0px;text-anchor:middle;fill:#f9f6f2;fill-opacity:1;stroke:none;display:inline;font-family:Clear Sans;-inkscape-font-specification:Clear Sans Bold"
       xml:space="preserve"><tspan
         style="font-size:40px;font-weight:bold;fill:#f9f6f2;fill-opacity:1;-inkscape-font-specification:Clear Sans Bold"
         y="873.87781"
         x="318.37891"
         id="tspan3849"
         sodipodi:role="line">1024</tspan></text>
    <text
       transform="translate(0,-540.3622)"
       xml:space="preserve"
       style="font-size:18px;font-style:normal;font-variant:normal;font-weight:bold;font-stretch:normal;text-align:center;line-height:125%;letter-spacing:0px;word-spacing:0px;text-anchor:middle;fill:#f9f6f2;fill-opacity:1;stroke:none;display:inline;font-family:Clear Sans;-inkscape-font-specification:Clear Sans Bold"
       x="447.84375"
       y="873.87781"
       id="text3851"
       sodipodi:linespacing="125%"><tspan
         sodipodi:role="line"
         id="tspan3853"
         x="447.84375"
         y="873.87781"
         style="font-size:40px;font-weight:bold;fill:#f9f6f2;fill-opacity:1;-inkscape-font-specification:Clear Sans Bold">2048</tspan></text>
    <text
       transform="translate(0,-540.3622)"
       sodipodi:linespacing="125%"
       id="text3855"
       y="1001.8583"
       x="64.205078"
       style="font-size:18px;font-style:normal;font-variant:normal;font-weight:bold;font-stretch:normal;text-align:center;line-height:125%;letter-spacing:0px;word-spacing:0px;text-anchor:middle;fill:#776e65;fill-opacity:1;stroke:none;display:inline;font-family:Clear Sans;-inkscape-font-specification:Clear Sans Bold"
       xml:space="preserve"><tspan
         style="font-size:40px;font-weight:bold;fill:#776e65;fill-opacity:1;-inkscape-font-specification:Clear Sans Bold"
         y="1001.8583"
         x="64.205078"
         id="tspan3857"
         sodipodi:role="line">4096</tspan></text>
    <text
       transform="translate(0,-540.3622)"
       xml:space="preserve"
       style="font-size:18px;font-style:normal;font-variant:normal;font-weight:bold;font-stretch:normal;text-align:center;line-height:125%;letter-spacing:0px;word-spacing:0px;text-anchor:middle;fill:#776e65;fill-opacity:1;stroke:none;display:inline;font-family:Clear Sans;-inkscape-font-specification:Clear Sans Bold"
       x="192.19531"
       y="1001.8778"
       id="text3861"
       sodipodi:linespacing="125%"><tspan
         sodipodi:role="line"
         id="tspan3863"
         x="192.19531"
         y="1001.8778"
         style="font-size:40px;font-weight:bold;fill:#776e65;fill-opacity:1;-inkscape-font-specification:Clear Sans Bold">8192</tspan></text>
    <text
       transform="translate(0,-540.3622)"
       sodipodi:linespacing="125%"
       id="text3867"
       y="999.17468"
       x="318.70312"
       style="font-size:18px;font-style:normal;font-variant:normal;font-weight:bold;font-stretch:normal;text-align:center;line-height:125%;letter-spacing:0px;word-spacing:0px;text-anchor:middle;fill:#776e65;fill-opacity:1;stroke:none;display:inline;font-family:Clear Sans;-inkscape-font-specification:Clear Sans Bold"
       xml:space="preserve"><tspan
         style="font-size:32px;font-weight:bold;fill:#776e65;fill-opacity:1;-inkscape-font-specification:Clear Sans Bold"
         y="999.17468"
         x="318.70312"
         id="tspan3869"
         sodipodi:role="line">16384</tspan></text>
    <text
       transform="translate(0,-540.3622)"
       xml:space="preserve"
       style="font-size:18px;font-style:normal;font-variant:normal;font-weight:bold;font-stretch:normal;text-align:center;line-height:125%;letter-spacing:0px;word-spacing:0px;text-anchor:middle;fill:#776e65;fill-opacity:1;stroke:none;display:inline;font-family:Clear Sans;-inkscape-font-specification:Clear Sans Bold"
       x="448.15625"
       y="999.17468"
       id="text3873"
       sodipodi:linespacing="125%"><tspan
         sodipodi:role="line"
         id="tspan3875"
         x="448.15625"
         y="999.17468"
         style="font-size:32px;font-weight:bold;fill:#776e65;fill-opacity:1;-inkscape-font-specification:Clear Sans Bold">32768</tspan></text>
  </g>
  <g
     inkscape:groupmode="layer"
     id="layer3"
     inkscape:label="mesh"
     style="display:none"
     sodipodi:insensitive="true">
    <path
       style="fill:#bbada0;fill-opacity:1;stroke:none"
       d="m -8,-16 c -4.432,0 -8,3.568 -8,8 l 0,528 c 0,4.432 3.568,8 8,8 l 528,0 c 4.432,0 8,-3.568 8,-8 l 0,-528 c 0,-4.432 -3.568,-8 -8,-8 L -8,-16 z M 10,6 118,6 c 2.216,0 4,1.784 4,4 l 0,108 c 0,2.216 -1.784,4 -4,4 l -108,0 c -2.216,0 -4,-1.784 -4,-4 L 6,10 C 6,7.784 7.784,6 10,6 z m 128,0 108,0 c 2.216,0 4,1.784 4,4 l 0,108 c 0,2.216 -1.784,4 -4,4 l -108,0 c -2.216,0 -4,-1.784 -4,-4 l 0,-108 c 0,-2.216 1.784,-4 4,-4 z m 128,0 108,0 c 2.216,0 4,1.784 4,4 l 0,108 c 0,2.216 -1.784,4 -4,4 l -108,0 c -2.216,0 -4,-1.784 -4,-4 l 0,-108 c 0,-2.216 1.784,-4 4,-4 z m 128,0 108,0 c 2.216,0 4,1.784 4,4 l 0,108 c 0,2.216 -1.784,4 -4,4 l -108,0 c -2.216,0 -4,-1.784 -4,-4 l 0,-108 c 0,-2.216 1.784,-4 4,-4 z m -384,128 108,0 c 2.216,0 4,1.784 4,4 l 0,108 c 0,2.216 -1.784,4 -4,4 l -108,0 c -2.216,0 -4,-1.784 -4,-4 L 6,138 c 0,-2.216 1.784,-4 4,-4 z m 128,0 108,0 c 2.216,0 4,1.784 4,4 l 0,108 c 0,2.216 -1.784,4 -4,4 l -108,0 c -2.216,0 -4,-1.784 -4,-4 l 0,-108 c 0,-2.216 1.784,-4 4,-4 z m 128,0 108,0 c 2.216,0 4,1.784 4,4 l 0,108 c 0,2.216 -1.784,4 -4,4 l -108,0 c -2.216,0 -4,-1.784 -4,-4 l 0,-108 c 0,-2.216 1.784,-4 4,-4 z m 128,0 108,0 c 2.216,0 4,1.784 4,4 l 0,108 c 0,2.216 -1.784,4 -4,4 l -108,0 c -2.216,0 -4,-1.784 -4,-4 l 0,-108 c 0,-2.216 1.784,-4 4,-4 z m -384,128 108,0 c 2.216,0 4,1.784 4,4 l 0,108 c 0,2.216 -1.784,4 -4,4 l -108,0 c -2.216,0 -4,-1.784 -4,-4 L 6,266 c 0,-2.216 1.784,-4 4,-4 z m 128,0 108,0 c 2.216,0 4,1.784 4,4 l 0,108 c 0,2.216 -1.784,4 -4,4 l -108,0 c -2.216,0 -4,-1.784 -4,-4 l 0,-108 c 0,-2.216 1.784,-4 4,-4 z m 128,0 108,0 c 2.216,0 4,1.784 4,4 l 0,108 c 0,2.216 -1.784,4 -4,4 l -108,0 c -2.216,0 -4,-1.784 -4,-4 l 0,-108 c 0,-2.216 1.784,-4 4,-4 z m 128,0 108,0 c 2.216,0 4,1.784 4,4 l 0,108 c 0,2.216 -1.784,4 -4,4 l -108,0 c -2.216,0 -4,-1.784 -4,-4 l 0,-108 c 0,-2.216 1.784,-4 4,-4 z m -384,128 108,0 c 2.216,0 4,1.784 4,4 l 0,108 c 0,2.216 -1.784,4 -4,4 l -108,0 c -2.216,0 -4,-1.784 -4,-4 L 6,394 c 0,-2.216 1.784,-4 4,-4 z m 128,0 108,0 c 2.216,0 4,1.784 4,4 l 0,108 c 0,2.216 -1.784,4 -4,4 l -108,0 c -2.216,0 -4,-1.784 -4,-4 l 0,-108 c 0,-2.216 1.784,-4 4,-4 z m 128,0 108,0 c 2.216,0 4,1.784 4,4 l 0,108 c 0,2.216 -1.784,4 -4,4 l -108,0 c -2.216,0 -4,-1.784 -4,-4 l 0,-108 c 0,-2.216 1.784,-4 4,-4 z m 128,0 108,0 c 2.216,0 4,1.784 4,4 l 0,108 c 0,2.216 -1.784,4 -4,4 l -108,0 c -2.216,0 -4,-1.784 -4,-4 l 0,-108 c 0,-2.216 1.784,-4 4,-4 z"
       id="rect4067"
       inkscape:connector-curvature="0" />
  </g>
</svg>
